<svg xmlns="http://www.w3.org/2000/svg" viewBox="0 0 512 512" width="100%" height="100%">
  <defs>
    <linearGradient id="mot-bg" x1="0%" y1="0%" x2="0%" y2="100%">
      <stop offset="0%" stop-color="#cd1818" />
      <stop offset="100%" stop-color="#910f0f" />
    </linearGradient>
    <filter id="mot-shadow" x="-10%" y="-10%" width="120%" height="125%">
      <feDropShadow dx="0" dy="3" stdDeviation="4" flood-color="#000000" flood-opacity="0.45" />
    </filter>
  </defs>
  
  <rect x="8" y="8" width="496" height="496" rx="108" fill="url(#mot-bg)" stroke="#f5af19" stroke-width="16" />
  
  <path d="M27.38,332.22L27.38,187.78L76.43,187.78L108.36,273.76L109.06,273.76L140.99,187.78L190.04,187.78L190.04,332.22L153.00,332.22L153.00,248.54L133.29,248.54L174.23,191.78L120.07,332.22L97.35,332.22L43.20,191.78L84.14,248.54L64.42,248.54L64.42,332.22ZM284.23,334.82Q261.91,334.82 245.59,325.76Q229.27,316.71 220.42,299.89Q211.56,283.07 211.56,260.05L211.56,259.85Q211.56,236.83 220.47,220.06Q229.37,203.29 245.69,194.24Q262.01,185.18 284.23,185.18Q306.65,185.18 323.02,194.29Q339.38,203.39 348.24,220.11Q357.10,236.83 357.10,259.85L357.10,260.05Q357.10,283.07 348.24,299.84Q339.38,316.61 323.07,325.71Q306.75,334.82 284.23,334.82ZM284.23,300.19Q293.44,300.19 300.04,295.28Q306.65,290.38 310.25,281.37Q313.86,272.36 313.86,260.05L313.86,259.85Q313.86,247.44 310.20,238.48Q306.55,229.52 299.89,224.67Q293.24,219.81 284.23,219.81Q275.42,219.81 268.76,224.62Q262.11,229.42 258.45,238.38Q254.80,247.34 254.80,259.85L254.80,260.05Q254.80,272.46 258.45,281.47Q262.11,290.48 268.71,295.33Q275.32,300.19 284.23,300.19ZM404.14,332.22L404.14,221.41L366.10,221.41L366.10,187.78L484.62,187.78L484.62,221.41L446.58,221.41L446.58,332.22Z" fill="#fedb55" filter="url(#mot-shadow)" fill-rule="nonzero" />
</svg>